<svg width="33" height="61" viewBox="0 0 33 61" fill="none" xmlns="http://www.w3.org/2000/svg">
<path d="M3.16051 49V12.6364H17.5071C20.2652 12.6364 22.6148 13.1631 24.5561 14.2166C26.4974 15.2583 27.977 16.7083 28.995 18.5668C30.0249 20.4134 30.5398 22.544 30.5398 24.9588C30.5398 27.3736 30.0189 29.5043 28.9773 31.3509C27.9356 33.1974 26.4264 34.6357 24.4496 35.6655C22.4846 36.6953 20.1054 37.2102 17.3118 37.2102H8.16761V31.049H16.0689C17.5485 31.049 18.7678 30.7945 19.7266 30.2855C20.6972 29.7647 21.4193 29.0485 21.8928 28.1371C22.3781 27.2138 22.6207 26.1544 22.6207 24.9588C22.6207 23.7514 22.3781 22.6979 21.8928 21.7983C21.4193 20.8868 20.6972 20.1825 19.7266 19.6854C18.7559 19.1764 17.5249 18.9219 16.0334 18.9219H10.8487V49H3.16051Z" fill="#252525"/>
<mask id="mask0_1_24" style="mask-type:alpha" maskUnits="userSpaceOnUse" x="3" y="12" width="28" height="37">
<path d="M3.16051 49V12.6364H17.5071C20.2652 12.6364 22.6148 13.1631 24.5561 14.2166C26.4974 15.2583 27.977 16.7083 28.995 18.5668C30.0249 20.4134 30.5398 22.544 30.5398 24.9588C30.5398 27.3736 30.0189 29.5043 28.9773 31.3509C27.9356 33.1974 26.4264 34.6357 24.4496 35.6655C22.4846 36.6953 20.1054 37.2102 17.3118 37.2102H8.16761V31.049H16.0689C17.5485 31.049 18.7678 30.7945 19.7266 30.2855C20.6972 29.7647 21.4193 29.0485 21.8928 28.1371C22.3781 27.2138 22.6207 26.1544 22.6207 24.9588C22.6207 23.7514 22.3781 22.6979 21.8928 21.7983C21.4193 20.8868 20.6972 20.1825 19.7266 19.6854C18.7559 19.1764 17.5249 18.9219 16.0334 18.9219H10.8487V49H3.16051Z" fill="black"/>
</mask>
<g mask="url(#mask0_1_24)">
<rect x="9.45639" y="5" width="5.7224" height="21" transform="rotate(39.85 9.45639 5)" fill="#ABEBFF"/>
<rect x="15.911" y="6.05908" width="5.7224" height="31.2199" transform="rotate(39.85 15.911 6.05908)" fill="#3B5AFF"/>
<rect x="23.351" y="5.79315" width="5.7224" height="44.9914" transform="rotate(39.85 23.351 5.79315)" fill="#C387FF"/>
</g>
</svg>
